<?xml version="1.0" encoding="UTF-8"?>
<svg id="Layer_2" data-name="Layer 2" xmlns="http://www.w3.org/2000/svg" viewBox="0 0 23.52 24">
  <defs>
    <style>
      .cls-1 {
        fill: #ced0d6;
      }
    </style>
  </defs>
  <g id="Layer_1-2">
    <path class="cls-1" d="M5.57,18.13c-.27-.29-.55-.58-.82-.88-.35-.4-.7-.8-1.04-1.21-.63-.76-1.2-1.56-1.71-2.39-.66-1.08-1.22-2.22-1.58-3.44C-.01,8.75-.14,7.28.17,5.78c.24-1.18.76-2.29,1.52-3.21.27-.33.57-.63.89-.9.29-.26.54-.55.83-.82.28-.27.6-.48,1-.54.45-.07.85.09,1.21.35.43.3.79.69,1.09,1.11.5.69.99,1.38,1.45,2.09.33.51.57,1.07.65,1.68.09.65-.07,1.25-.49,1.74-.44.52-.92,1.02-1.47,1.44-.39.3-.71.67-.8,1.18-.08.42,0,.83.13,1.22.2.58.51,1.09.86,1.59.54.76,1.16,1.45,1.81,2.12.59.6,1.19,1.19,1.84,1.71.55.44,1.12.83,1.77,1.1.38.16.78.26,1.19.22.5-.05.9-.28,1.21-.66.46-.57.96-1.09,1.51-1.57.65-.57,1.41-.67,2.22-.41.6.19,1.14.51,1.64.89.58.44,1.15.9,1.71,1.36.4.33.76.7,1.02,1.16.38.67.32,1.36-.19,1.94-.26.29-.55.55-.82.82-.19.2-.38.4-.58.59-1.31,1.24-2.87,1.89-4.66,2-1.36.08-2.67-.18-3.93-.67-1.33-.51-2.55-1.24-3.7-2.09-.64-.47-1.26-.97-1.85-1.5-.35-.32-.69-.64-1.04-.97-.21-.21-.42-.42-.63-.63h0Z"/>
    <path class="cls-1" d="M19.99,2.95c1.46,1.52,2.6,3.05,3.42,4.8.17.36.15.7-.08,1.01-.23.31-.56.44-.95.39-.39-.06-.68-.26-.86-.62-.48-.96-1.03-1.87-1.69-2.72-.48-.61-1.01-1.18-1.58-1.7-.94-.87-1.97-1.63-3.07-2.28-.15-.08-.28-.21-.36-.36-.09-.15-.13-.32-.13-.5,0-.23.1-.43.25-.61.16-.19.38-.31.62-.36.24-.04.49,0,.7.13,1,.57,1.94,1.24,2.82,1.98.36.31.69.63.9.83Z"/>
  </g>
</svg>