<svg width="41" height="40" viewBox="0 0 41 40" fill="none" xmlns="http://www.w3.org/2000/svg">
    <path d="M11.2603 28.5152C10.8814 28.1072 10.4954 27.7062 10.1271 27.2914C9.63866 26.7402 9.15331 26.1859 8.68519 25.6173C7.81713 24.567 7.02247 23.4569 6.30699 22.2951C5.38366 20.7906 4.61532 19.2134 4.11236 17.512C3.51508 15.4899 3.33659 13.4417 3.76558 11.3611C4.09381 9.72065 4.8169 8.18707 5.87096 6.89585C6.24868 6.44416 6.6622 6.02431 7.10742 5.64045C7.509 5.28459 7.86401 4.87614 8.25385 4.50526C8.64369 4.13437 9.09342 3.83505 9.64374 3.75122C10.2755 3.65475 10.8223 3.87815 11.3299 4.23124C11.9327 4.65037 12.4251 5.18969 12.8505 5.77924C13.5398 6.73334 14.2189 7.69693 14.8632 8.68227C15.3258 9.38688 15.6581 10.1623 15.772 11.0144C15.893 11.9202 15.6793 12.7466 15.0925 13.4358C14.4745 14.1621 13.8118 14.8497 13.0545 15.4369C12.5088 15.8592 12.0728 16.3661 11.9397 17.0786C11.8309 17.663 11.9288 18.2277 12.1198 18.7796C12.3977 19.5823 12.831 20.3 13.3171 20.9872C14.0678 22.0476 14.9321 23.0053 15.8327 23.9341C16.646 24.7731 17.4825 25.5841 18.3941 26.3136C19.153 26.9221 19.9491 27.4733 20.8537 27.8438C21.3832 28.0625 21.9312 28.1985 22.5101 28.1475C23.1982 28.085 23.7638 27.7643 24.1924 27.2333C24.8264 26.4458 25.5263 25.7149 26.2844 25.0487C27.1874 24.2559 28.2419 24.1176 29.3707 24.4766C30.2052 24.7407 30.9524 25.1847 31.646 25.7122C32.4495 26.3239 33.2394 26.9573 34.0198 27.601C34.5745 28.0585 35.0723 28.5765 35.4336 29.2119C35.9667 30.1458 35.8826 31.1055 35.1682 31.9085C34.8121 32.3095 34.4101 32.6681 34.0316 33.0489C33.7615 33.3217 33.504 33.608 33.2249 33.8709C31.4017 35.5877 29.2333 36.4964 26.7502 36.6458C24.8593 36.7601 23.0463 36.3971 21.2862 35.7206C19.4321 35.0085 17.7435 33.997 16.1435 32.8235C15.2526 32.1703 14.3993 31.4696 13.5758 30.7334C13.0858 30.2953 12.6122 29.839 12.1382 29.3839C11.8411 29.098 11.5581 28.7979 11.2681 28.5049L11.2603 28.5152Z"
          fill="#007AFF"/>
    <path d="M31.2863 7.43398C33.3134 9.54977 34.8923 11.6707 36.0387 14.1052C36.2728 14.6026 36.2528 15.0751 35.9295 15.5116C35.6062 15.9482 35.151 16.1265 34.614 16.0498C34.077 15.9731 33.6692 15.6852 33.4206 15.185C32.7568 13.8517 31.9892 12.5837 31.0698 11.4129C30.4031 10.5682 29.6716 9.77773 28.8822 9.0488C27.575 7.84532 26.147 6.78305 24.6214 5.87926C24.412 5.76191 24.2377 5.58976 24.1169 5.38089C23.9961 5.17203 23.9332 4.93416 23.9348 4.69226C23.9294 4.37673 24.073 4.08928 24.2844 3.84729C24.5045 3.5857 24.8089 3.41092 25.1441 3.35371C25.4792 3.2965 25.8235 3.36053 26.1165 3.53453C27.5027 4.32831 28.8132 5.24982 30.0314 6.28731C30.5269 6.71198 30.9954 7.16708 31.2863 7.43398Z"
          fill="#007AFF"/>
</svg>
