<?xml version="1.0" encoding="utf-8"?>
<svg xmlns="http://www.w3.org/2000/svg" viewBox="0 0 500 500">
    <g style="" transform="matrix(19.871256, 0, 0, 19.871256, -2593.974121, -4288.813477)">
        <path d="M 139.512 240.251 C 140.669 240.614 141.883 240.795 143.116 240.795 C 149.8 240.795 155.238 235.348 155.238 228.657 C 155.238 228.339 155.226 228.016 155.198 227.694 C 154.962 227.839 154.718 227.98 154.47 228.113 C 152.711 229.047 150.877 229.522 149.007 229.522 C 147.794 229.522 146.568 229.317 145.351 228.914 C 145.339 229.043 145.323 229.176 145.303 229.305 C 145.054 230.996 144.121 233.439 141.082 235.468 C 140.109 236.117 139.548 236.914 139.364 237.908 C 139.236 238.605 139.284 239.39 139.508 240.251 L 139.512 240.251 Z"
              style="stroke-width: 1; fill: rgb(255, 255, 255);"/>
        <path d="M 136.264 238.649 C 133 236.398 131.002 232.634 131.002 228.64 C 131.002 228.109 131.038 227.578 131.106 227.058 C 131.731 226.688 132.664 226.209 133.797 225.875 C 134.734 225.601 135.667 225.46 136.568 225.46 C 138.378 225.46 140.137 226.02 141.791 227.119 C 141.959 227.231 142.131 227.34 142.299 227.445 C 142.471 228.528 142.423 230.899 139.408 232.908 C 137.734 234.027 136.717 235.521 136.38 237.349 C 136.304 237.767 136.264 238.202 136.264 238.649 Z"
              style="stroke-width: 1; fill: rgb(255, 255, 255);"/>
        <path d="M 153.104 225.722 C 149.908 227.393 146.572 227.099 143.188 224.844 C 140.037 222.743 136.476 222.207 132.892 223.286 C 132.384 223.439 131.907 223.616 131.471 223.801 C 133.345 219.24 137.826 216.027 143.056 216.027 C 148.563 216.027 153.244 219.59 154.918 224.538 C 154.394 224.949 153.789 225.364 153.104 225.722 Z"
              style="stroke-width: 1; fill: rgb(255, 255, 255);"/>
    </g>
</svg>